# xmcd
#
# Track frame offsets:
#  150
#  12159
#  24679
#  36987
#  46785
#  59082
#  66263
#  79722
#  93219
#  106768
#  131145
#  147983
#  157957
#  170810
#  183517
#  192579
#  204688
#  216998
#  229141
#  239077
#  249152
#  260794
#  268879
#  278063
#  290844
#  303448
#  313839
#  322681
#
# Disc length: 4445 seconds
#
# Revision: 0
# Processed by: cddbd v1.5.2PL0 Copyright (c) Steve Scherf et al.
# Submitted via: Collectorz.com Music Collector 6.9
#
DISCID=b0115b1c
DTITLE=Various Artist - Rockabilly Hall of Fame: Volume 3
DYEAR=2000
DGENRE=Rockabilly
TTITLE0=I Need Your Love Tonight - Dimaggio Bros.
TTITLE1=Rock-a-Billy Hound Dog - Wanda Jackson
TTITLE2=Put a Move on - Billy Swan
TTITLE3=Come Back - Nick Gilroy Kombo
TTITLE4=That's How Much I Love You - Toini And
TTITLE5=I'm Movin' on - Bobby Lowell
TTITLE6=Zydeco-Billy - Lou Hobbs
TTITLE7=Gettin' Some Gone - Tom Mathis
TTITLE8=One More Beer - the Rimshots
TTITLE9=Rockabilly Blue - Toni Baustian
TTITLE10=Rock 'n' Roll Devil - Rockin' Roary
TTITLE11=Hard Knocks - Steve Anysley W/ Darrel Higham
TTITLE12=Only Time Will Tell - the Railmen
TTITLE13=Rock 'n' Roll Ruby - Junior "Simone" Dimaggio
TTITLE14=Humes Senior High - Bob E. Rock
TTITLE15=Rockabilly Crazy - Craig Michaels
TTITLE16=Catfish Baby - Zane Raney
TTITLE17=Rock-N-the House - Hack And the '57s
TTITLE18=Hotrod Road - the Convertibles
TTITLE19=The Prettiest Girl in Town - Hicksville Bombers
TTITLE20=Blue Days, Black Nights - Alan Mills W/ Darrel Higham
TTITLE21=Mean When I'm Mad - the Atomics
TTITLE22=I Will Always Care for You - Rockin' Rooster
TTITLE23=Rocket Drivin' Daddy - Johnny Z And the Uptown Savages
TTITLE24=Smooth Talkin' Lines - Larry Merritt
TTITLE25=Black Dress - Jerry Lee Merritt
TTITLE26=Don't Satisfy My Soul -
TTITLE27=Everyday - the Drumless
EXTD=
EXTT0=
EXTT1=
EXTT2=
EXTT3=
EXTT4=
EXTT5=
EXTT6=
EXTT7=
EXTT8=
EXTT9=
EXTT10=
EXTT11=
EXTT12=
EXTT13=
EXTT14=
EXTT15=
EXTT16=
EXTT17=
EXTT18=
EXTT19=
EXTT20=
EXTT21=
EXTT22=
EXTT23=
EXTT24=
EXTT25=
EXTT26=
EXTT27=
PLAYORDER=
